<?xml version="1.0" encoding="utf-8"?>
<!-- Generated by IcoMoon.io -->
<!DOCTYPE svg PUBLIC "-//W3C//DTD SVG 1.1//EN" "http://www.w3.org/Graphics/SVG/1.1/DTD/svg11.dtd">
<svg width="91" height="88" viewBox="0 0 91 88" fill="none" xmlns="http://www.w3.org/2000/svg">
<path d="M37.135 19.238C42.6279 25.7925 44.9528 28.1467 44.9528 28.1467L14.0757 39.117C14.0757 39.117 11.1931 11.5128 18.4566 6.86916C23.1632 3.84924 33.745 15.1781 37.135 19.238Z" fill="#FDB262"/>
<path d="M56.5559 19.3422C50.6319 25.8527 48.1464 28.1716 48.1464 28.1716L78.2902 39.4623C78.2902 39.4623 83.0163 11.8975 76.0626 7.17636C71.5551 4.12519 60.2295 15.3253 56.5559 19.3422Z" fill="#FDB262"/>
<path d="M83.2578 52.0482C82.9072 42.7666 78.0969 33.1389 70.4304 27.1053C64.2317 22.2121 55.376 19.6421 46.6518 19.5408C37.9252 19.4075 28.9558 21.7365 22.5147 26.4395C14.5404 32.2652 9.25923 41.7429 8.42792 51.0221C7.6424 59.8263 9.10592 68.7214 16.6862 74.9559C20.8899 78.4072 26.1663 80.7913 31.6369 82.1083C33.7143 82.6117 39.0937 83.7879 44.7458 83.8679C50.418 83.9459 56.3629 82.9279 58.4709 82.4763C64.0006 81.3062 69.4019 79.0791 73.7729 75.7544C81.6815 69.7212 83.5949 60.8713 83.2578 52.0482V52.0482Z" fill="#FDB262"/>
<path d="M20.6987 16.0489C20.1153 18.138 19.0692 24.0904 20.2962 28.1314C20.6577 29.3368 22.1826 29.7443 23.1965 29.1107C25.3106 27.7816 28.5956 25.4826 29.8291 24.6779C31.9316 23.3285 32.5797 21.8428 31.2688 20.2272C29.6017 18.165 25.5138 13.9538 23.2646 13.7238C21.9823 13.5922 21.0838 14.6958 20.6987 16.0489ZM72.8575 16.5899C73.4252 18.6737 74.3872 24.6015 73.1123 28.6831C72.7363 29.8856 71.203 30.3239 70.1979 29.7052C68.1027 28.4121 64.8562 26.1617 63.6171 25.3841C61.5404 24.0677 60.8962 22.5904 62.23 20.9523C63.9143 18.8629 68.0528 14.5769 70.3061 14.3145C71.5974 14.1565 72.4958 15.2454 72.8575 16.5899Z" fill="#FCD4B5"/>
<path d="M33.3717 53.4247C33.2819 56.8668 30.8692 59.6261 27.9876 59.5862C25.106 59.5462 22.8279 56.7308 22.9169 53.2781C23.0059 49.8255 25.4186 47.0661 28.3002 47.1061C31.1826 47.1566 33.4506 49.9731 33.3717 53.4247ZM57.6883 53.7601C57.5985 57.2021 59.8673 60.0292 62.7489 60.0691C65.6305 60.1091 68.0432 57.3497 68.133 53.9077C68.222 50.455 65.9532 47.628 63.0716 47.588C60.1807 47.5597 57.7773 50.3075 57.6883 53.7601Z" fill="#2F2F2F"/>
<path d="M41.3091 73.8283C39.7339 73.9711 38.1118 73.6159 36.8897 72.7938C35.9223 72.1394 34.3023 70.0299 35.7331 69.0241C35.9637 68.8626 36.2289 68.7618 36.4974 68.7036C36.9239 68.5978 37.2835 68.6804 37.6657 68.9319C38.281 69.3319 38.8326 70.1016 39.5656 70.1799C41.858 70.4484 43.7136 69.0375 44.0783 66.5848C44.1709 65.9233 44.1984 65.6105 44.915 65.4658C46.6574 65.1248 47.2508 67.4199 46.8719 68.858C46.5323 70.1425 46.0693 71.5353 45.0309 72.3852C43.9633 73.2486 42.6337 73.7098 41.3091 73.8283Z" fill="#2F2F2F"/>
<path d="M49.5805 73.8133C51.1568 73.9591 52.7866 73.597 54.0395 72.7796C55.0209 72.1171 56.7045 70.017 55.297 69.0098C54.4122 68.3795 53.7012 68.7376 52.9296 69.369C50.9678 70.9827 48.0662 70.2602 47.1864 67.7791C46.9929 67.2097 47.1355 66.2653 46.8464 65.7693C46.7081 65.5368 46.5214 65.6085 46.2328 65.5297C46.0368 65.4739 45.9102 65.4007 45.6988 65.4106C44.7213 65.4417 44.2411 66.6009 44.1549 67.4863C44.1091 67.9614 44.0478 68.3631 44.1524 68.8235C44.46 70.1198 44.885 71.5009 45.9074 72.3531C46.9421 73.2362 48.258 73.6855 49.5805 73.8133Z" fill="#2F2F2F"/>
<path d="M45.3989 69.4294C45.4498 69.4352 45.51 69.4293 45.5601 69.4244C46.3524 69.3472 46.9773 68.6445 47.005 67.7862L47.1607 61.6745C47.1836 60.7525 46.5024 60.006 45.6429 59.9935C44.7866 60.0235 44.0598 60.7147 44.036 61.6262L43.8811 67.7484C43.8582 68.6705 44.5394 69.417 45.3989 69.4294Z" fill="#2F2F2F"/>
<path d="M40.2741 62.3884C40.3278 63.5276 41.0319 64.7211 42.1274 65.4699C43.0207 66.078 44.2971 66.4028 45.54 66.41C46.7837 66.4278 48.0756 66.1414 48.9931 65.5707C50.1319 64.85 50.8945 63.6847 51.0021 62.5405C51.1143 61.46 50.901 60.3471 49.8039 59.577C49.2063 59.1432 48.4476 58.8535 47.6582 58.6952C47.3704 58.627 46.5918 58.4783 45.7832 58.4716C44.9639 58.4552 44.1146 58.5808 43.8161 58.6419C43.0285 58.7829 42.2511 59.0619 41.6243 59.4653C40.4972 60.2062 40.2236 61.2917 40.2741 62.3884Z" fill="#2F2F2F"/>
<path d="M11.3248 56.7503C11.2245 56.7601 11.1234 56.7593 11.0216 56.7478L2.65215 55.8418C1.79723 55.754 1.18149 54.937 1.28625 54.0283C1.38097 53.1207 2.17955 52.4439 3.01597 52.5548L11.3862 53.4715C12.2411 53.5593 12.8568 54.3763 12.7513 55.2743C12.658 56.0642 12.0468 56.68 11.3248 56.7503ZM3.34367 64.2666C2.57147 64.3419 1.86499 63.8011 1.70366 62.9826C1.51681 62.0917 2.05826 61.2153 2.9013 61.0048L11.1497 59.0349C11.9727 58.8263 12.8119 59.3862 12.9987 60.2771C13.1756 61.169 12.6349 62.056 11.8011 62.2549L3.5527 64.2248C3.48407 64.2529 3.4239 64.2588 3.34367 64.2666ZM6.34842 71.4606C5.67651 71.5261 5.02031 71.1195 4.76575 70.4063C4.4609 69.559 4.87575 68.6094 5.68934 68.2734L13.5823 65.0439C14.3867 64.7195 15.2859 65.1345 15.5915 65.9925C15.8864 66.8408 15.4823 67.8 14.6679 68.1254L6.77496 71.3548C6.62766 71.412 6.48882 71.4469 6.34842 71.4606ZM79.9474 56.4671C79.1651 56.5433 78.4471 55.9823 78.295 55.1522C78.218 54.7229 78.3054 54.2763 78.5379 53.9107C78.7704 53.5451 79.1291 53.2903 79.5351 53.2023L87.8161 51.4003C88.643 51.2448 89.4814 51.7941 89.6382 52.688C89.8057 53.5915 89.2434 54.4591 88.3981 54.6378L80.1171 56.4398C80.0569 56.4457 79.9975 56.4622 79.9474 56.4671ZM88.3968 63.1195C88.2865 63.1303 88.1754 63.1304 88.0527 63.1103L79.7093 62.0092C79.3015 61.9539 78.9331 61.7296 78.6844 61.3852C78.4357 61.0408 78.327 60.6041 78.382 60.1706C78.5076 59.2706 79.2884 58.6276 80.1349 58.7376L88.4883 59.8378C89.3348 59.9478 89.9413 60.7764 89.8157 61.6763C89.7216 62.4556 89.1089 63.0501 88.3968 63.1195ZM85.9072 70.5924C85.7267 70.61 85.5338 70.5968 85.3478 70.54L77.2639 68.1622C76.4381 67.9219 75.9565 67.0062 76.2048 66.1264C76.4431 65.2475 77.3143 64.7347 78.1401 64.9751L86.2341 67.3519C87.0606 67.6029 87.5314 68.5089 87.2932 69.3878C87.101 70.0696 86.539 70.5308 85.9072 70.5924Z" fill="#2F2F2F"/>
</svg>



